<?xml version="1.0" standalone="no"?>
<!DOCTYPE svg PUBLIC "-//W3C//DTD SVG 20010904//EN"
 "http://www.w3.org/TR/2001/REC-SVG-20010904/DTD/svg10.dtd">
<svg version="1.0" xmlns="http://www.w3.org/2000/svg"
 width="700.000000pt" height="700.000000pt" viewBox="0 0 700.000000 700.000000"
 preserveAspectRatio="xMidYMid meet">
<metadata>
Created by potrace 1.14, written by Peter Selinger 2001-2017
</metadata>
<g transform="translate(0.000000,700.000000) scale(0.100000,-0.100000)"
fill="#000000" stroke="none">
<path d="M3457 6714 c-1 -1 -60 -4 -132 -8 -71 -3 -139 -8 -150 -10 -11 -2
-49 -7 -85 -11 -69 -7 -259 -52 -273 -65 -8 -7 69 -35 123 -45 14 -3 48 -9 75
-14 135 -26 254 -35 470 -35 182 -1 287 4 400 19 109 14 231 40 280 61 l30 12
-30 12 c-47 18 -169 45 -250 55 -22 3 -56 7 -75 10 -65 9 -376 24 -383 19z"/>
<path d="M2440 6520 c-59 -32 -130 -100 -130 -124 0 -53 212 -173 375 -213 11
-3 36 -9 55 -13 216 -53 456 -81 713 -83 168 -1 433 9 447 18 3 2 34 6 70 10
36 4 84 11 108 16 23 5 59 12 80 15 125 20 317 85 418 141 54 30 114 89 114
112 0 24 -65 83 -131 120 -31 17 -60 31 -65 31 -5 0 -19 -17 -32 -38 -44 -71
-150 -126 -329 -171 -43 -11 -98 -22 -123 -26 -25 -3 -72 -10 -105 -15 -341
-53 -882 -18 -1153 74 -113 38 -211 106 -227 157 -8 25 -20 24 -85 -11z"/>
<path d="M2162 6056 c-298 -218 -574 -521 -732 -803 l-23 -42 35 -68 c36 -68
90 -212 109 -287 5 -23 11 -48 14 -56 11 -44 45 -215 50 -257 3 -26 8 -57 10
-68 2 -11 7 -56 10 -100 4 -44 9 -82 11 -85 3 -2 65 56 138 129 l133 133 130
0 130 0 32 67 c168 343 477 613 841 735 431 143 917 70 1281 -193 199 -145
356 -330 460 -543 l33 -66 210 -1 c116 0 220 0 232 0 20 -1 20 -2 20 -561 l0
-560 -231 0 -232 0 -38 -75 c-94 -189 -270 -398 -439 -522 -133 -98 -314 -184
-482 -228 -488 -128 -1004 8 -1359 360 -56 55 -114 116 -129 135 -51 64 -127
184 -163 258 l-34 72 -131 0 -130 0 -134 135 c-73 74 -135 131 -138 127 -2 -4
-7 -38 -10 -77 -7 -80 -12 -117 -32 -240 -16 -107 -67 -304 -100 -396 -36 -96
-96 -211 -142 -269 -35 -45 -122 -120 -139 -120 -33 -1 -33 -18 1 -101 43
-107 106 -240 152 -321 20 -35 45 -77 55 -95 10 -17 35 -57 55 -87 36 -55 38
-56 85 -56 63 -1 271 -1 397 0 l97 0 0 217 0 218 340 0 340 0 2 -214 c1 -117
4 -215 6 -218 6 -6 1489 -5 1495 1 2 3 4 101 3 218 l-1 214 338 0 c185 0 339
-4 342 -8 3 -4 5 -102 5 -218 l-1 -210 23 0 c29 -1 238 -1 397 0 l123 0 51 78
c76 116 222 392 222 419 0 3 6 19 14 36 25 54 46 110 44 112 -2 2 -21 12 -43
23 -164 85 -316 410 -371 792 -3 19 -7 46 -9 60 -11 59 -18 121 -31 270 -7 72
-7 459 0 525 3 33 8 94 12 135 3 41 8 82 9 91 2 9 6 40 10 70 22 183 102 464
169 597 20 39 36 75 36 80 0 14 -163 254 -225 332 -158 197 -336 368 -532 509
l-73 52 -61 -36 c-110 -64 -288 -129 -441 -159 -16 -4 -38 -8 -50 -11 -57 -12
-77 -16 -143 -26 -38 -5 -90 -12 -115 -14 -25 -3 -68 -8 -97 -11 -86 -10 -180
-13 -363 -13 -179 0 -206 1 -344 13 -74 7 -95 9 -178 20 -260 35 -552 125
-693 215 -16 11 -32 20 -35 20 -3 0 -38 -24 -78 -53z"/>
<path d="M1031 5134 c-39 -44 -62 -81 -81 -131 -7 -18 -3 -25 31 -47 99 -66
173 -263 214 -573 24 -181 24 -614 0 -783 -21 -140 -29 -186 -51 -270 -31
-118 -81 -224 -130 -273 -20 -20 -40 -37 -43 -37 -3 0 -12 -4 -19 -9 -26 -16
75 -183 122 -201 100 -38 251 309 302 695 3 27 8 61 10 75 24 190 24 670 -1
832 -2 13 -6 44 -9 69 -8 53 -14 94 -21 129 -3 14 -8 39 -11 55 -8 47 -53 205
-75 265 -51 139 -131 250 -178 250 -11 0 -38 -21 -60 -46z"/>
<path d="M3369 5176 c-2 -2 -24 -6 -49 -10 -25 -3 -52 -7 -60 -9 -8 -2 -31 -7
-50 -11 -53 -12 -168 -54 -235 -86 -156 -75 -319 -211 -426 -354 -67 -89 -160
-269 -180 -347 -11 -42 -16 -49 -38 -50 -14 0 -90 -1 -169 -2 l-143 -2 -154
-155 c-85 -85 -155 -157 -155 -160 0 -3 69 -74 154 -158 l154 -153 167 -2 167
-2 24 -70 c124 -359 415 -640 777 -750 200 -60 417 -67 624 -19 389 90 716
386 847 769 l24 70 197 1 197 2 -1 306 c0 169 -3 311 -5 315 -3 5 -81 8 -173
9 -93 0 -180 1 -194 1 -22 1 -27 8 -38 50 -19 74 -112 257 -172 336 -189 253
-422 398 -754 470 -34 8 -329 17 -336 11z m276 -197 c28 -5 63 -12 79 -15 150
-26 344 -135 476 -265 186 -184 288 -417 294 -676 13 -505 -331 -924 -834
-1016 -73 -13 -202 -15 -300 -3 -125 15 -309 87 -428 168 -76 51 -224 207
-276 291 -183 295 -202 667 -49 971 143 284 408 484 718 540 84 16 251 18 320
5z"/>
<path d="M3431 4740 l-35 -5 52 -52 52 -53 51 51 c28 28 49 53 47 55 -7 6
-132 10 -167 4z"/>
<path d="M3080 4614 c-30 -19 -75 -54 -99 -77 -48 -46 -131 -155 -131 -172 0
-10 177 -195 186 -195 7 0 284 281 284 288 0 4 -42 49 -93 99 l-93 93 -54 -36z"/>
<path d="M3771 4555 c-85 -85 -93 -96 -80 -112 18 -21 240 -244 261 -261 13
-10 29 1 107 80 50 50 91 97 91 104 0 40 -166 216 -247 261 l-38 22 -94 -94z"/>
<path d="M3355 4138 l-146 -145 146 -145 145 -145 143 144 c78 79 143 145 144
146 1 2 -63 68 -142 147 l-144 143 -146 -145z"/>
<path d="M2750 3990 c0 -55 2 -100 4 -100 2 0 28 23 57 51 l52 50 -49 50 c-26
27 -52 49 -56 49 -4 0 -8 -45 -8 -100z"/>
<path d="M4186 4041 l-48 -49 51 -51 c28 -28 53 -51 56 -51 3 0 5 45 5 100 0
55 -4 100 -8 100 -4 0 -29 -22 -56 -49z"/>
<path d="M3820 3675 l-144 -145 34 -36 c50 -53 150 -149 159 -152 13 -5 105
62 161 118 61 60 120 141 120 162 0 7 -42 54 -93 105 l-93 92 -144 -144z"/>
<path d="M2933 3717 l-92 -94 34 -51 c45 -66 137 -158 204 -202 l53 -36 91 94
c51 51 94 95 97 98 6 7 -272 284 -285 284 -6 0 -52 -42 -102 -93z"/>
<path d="M3447 3301 l-49 -49 29 -6 c30 -7 153 -5 166 2 8 4 -81 102 -93 102
-3 0 -27 -22 -53 -49z"/>
<path d="M5844 5138 c-116 -134 -212 -476 -241 -864 -14 -187 -9 -529 12 -694
16 -135 22 -167 51 -300 59 -263 179 -494 247 -475 31 9 79 65 117 136 26 49
30 63 19 70 -8 5 -17 9 -20 9 -19 0 -86 85 -114 145 -29 61 -66 175 -80 247
-12 58 -35 231 -41 303 -14 161 -8 547 12 675 52 348 115 506 232 580 l23 15
-26 52 c-36 71 -101 143 -130 143 -15 0 -37 -15 -61 -42z"/>
<path d="M852 4615 c-21 -68 -27 -93 -38 -165 -3 -19 -7 -40 -9 -47 -25 -75
-26 -759 -1 -801 2 -4 7 -33 10 -65 8 -64 40 -198 54 -224 12 -21 24 12 53
147 36 164 44 252 44 520 0 245 -4 313 -29 470 -13 82 -31 160 -46 195 l-17
40 -21 -70z"/>
<path d="M6101 4616 c-23 -74 -46 -202 -58 -316 -15 -149 -6 -679 12 -710 2
-3 6 -27 9 -55 10 -70 32 -164 49 -205 l15 -34 20 64 c11 36 25 99 32 140 7
41 14 84 16 94 26 139 25 646 0 796 -3 14 -7 41 -10 60 -13 88 -44 212 -56
224 -5 5 -17 -20 -29 -58z"/>
<path d="M2310 2025 c0 -84 2 -95 18 -96 40 -1 167 3 170 6 2 2 4 34 4 72 0
126 11 113 -97 113 l-95 0 0 -95z"/>
<path d="M4499 2075 c-1 -57 -1 -88 0 -122 l1 -28 95 3 95 3 0 95 0 94 -95 0
-95 0 -1 -45z"/>
<path d="M1715 1680 l-60 -5 -1 -202 0 -203 1846 0 1845 0 1 205 0 205 -35 0
c-288 4 -3553 4 -3596 0z"/>
<path d="M380 1021 c0 -16 66 -102 101 -131 252 -210 721 -376 1335 -475 55
-9 110 -18 124 -20 35 -6 188 -26 230 -31 19 -2 53 -6 75 -9 22 -3 67 -7 100
-10 33 -3 76 -8 95 -10 19 -2 76 -7 125 -10 50 -4 101 -8 115 -10 14 -2 90 -7
170 -10 80 -4 174 -9 210 -11 83 -5 771 -5 870 0 41 2 134 7 205 10 72 4 153
9 180 11 28 2 84 7 125 10 41 3 95 8 120 10 25 3 72 7 105 10 65 6 126 13 165
20 14 2 50 7 81 10 31 3 65 7 75 9 11 2 42 7 69 10 28 4 86 13 130 21 44 8 91
16 105 19 14 2 54 9 90 16 170 30 584 142 665 180 11 5 45 19 77 30 145 53
344 173 422 255 35 37 76 93 76 105 0 3 -1404 5 -3120 5 -1716 0 -3120 -2
-3120 -4z"/>
</g>
</svg>
