<?xml version="1.0" standalone="no"?>
<!DOCTYPE svg PUBLIC "-//W3C//DTD SVG 20010904//EN"
 "http://www.w3.org/TR/2001/REC-SVG-20010904/DTD/svg10.dtd">
<svg version="1.0" xmlns="http://www.w3.org/2000/svg"
 width="700.000000pt" height="700.000000pt" viewBox="0 0 700.000000 700.000000"
 preserveAspectRatio="xMidYMid meet">
<metadata>
Created by potrace 1.14, written by Peter Selinger 2001-2017
</metadata>
<g transform="translate(0.000000,700.000000) scale(0.100000,-0.100000)"
fill="#000000" stroke="none">
<path d="M3647 6713 c-4 -3 -89 -7 -189 -9 -204 -4 -227 -6 -247 -18 -10 -6
-12 -5 -7 2 4 7 2 12 -3 12 -6 0 -11 -3 -11 -7 0 -5 -24 -9 -53 -9 -28 -1 -72
-5 -97 -9 -56 -8 -202 -43 -209 -51 -7 -7 18 -23 49 -30 14 -3 32 -8 40 -11
15 -6 31 -8 115 -17 22 -3 40 -5 40 -6 0 -5 126 -23 172 -24 24 -1 43 -5 43
-10 0 -5 6 -3 13 3 8 6 17 8 21 4 10 -11 326 -11 326 0 0 5 6 4 13 -2 8 -6 17
-8 21 -4 4 4 30 8 59 8 51 2 140 12 181 22 24 5 69 13 106 17 29 3 78 15 100
23 8 4 19 7 24 7 20 2 17 26 -3 27 -21 2 -39 5 -43 9 -4 2 -24 6 -72 14 -21 3
-43 9 -49 13 -5 3 -24 7 -41 8 -17 2 -32 4 -33 5 -2 1 -11 3 -20 4 -10 1 -24
5 -30 9 -8 5 -13 4 -13 -3 0 -6 -4 -9 -9 -5 -11 6 -67 14 -126 18 -22 1 -45 6
-51 9 -6 4 -14 5 -17 1z"/>
<path d="M2494 6540 c-6 -6 -18 -13 -25 -14 -39 -8 -66 -26 -125 -84 -30 -29
-33 -36 -22 -55 15 -29 66 -74 101 -88 15 -6 27 -15 27 -20 0 -5 3 -8 8 -7 4
1 25 -7 47 -17 46 -21 63 -26 88 -28 9 -1 17 -4 17 -8 0 -4 10 -9 23 -12 12
-3 54 -15 92 -26 39 -12 81 -24 95 -26 14 -3 39 -8 55 -12 17 -3 39 -7 50 -9
44 -5 89 -15 98 -21 6 -4 7 -1 2 6 -6 10 -3 11 12 2 11 -5 28 -10 39 -10 29
-1 99 -8 99 -10 0 -2 45 -4 100 -6 55 -3 100 -5 100 -5 0 -1 12 -3 28 -4 15
-1 27 2 27 6 0 4 7 5 15 1 20 -7 185 -10 185 -3 0 3 33 5 73 6 39 0 110 4 157
9 47 4 93 8 103 9 9 0 17 3 17 6 0 3 12 6 28 7 56 3 110 11 118 16 5 3 25 8
44 11 89 14 320 92 320 108 0 4 7 5 15 2 8 -4 15 -1 15 6 0 6 4 9 9 6 5 -3 14
1 21 9 7 8 21 15 32 15 10 0 17 4 13 9 -3 5 3 12 14 16 24 7 66 45 74 66 5 17
-56 93 -67 82 -3 -4 -6 2 -6 11 0 12 -5 16 -15 12 -8 -3 -15 -2 -15 3 0 5 -15
14 -32 22 -18 7 -36 17 -39 22 -4 5 -15 0 -25 -13 -19 -23 -82 -85 -108 -107
-8 -7 -26 -15 -40 -19 -14 -3 -26 -10 -26 -16 0 -5 -4 -7 -9 -3 -5 3 -12 1
-15 -4 -3 -4 -20 -12 -38 -16 -18 -4 -37 -9 -43 -11 -5 -2 -26 -6 -45 -10 -19
-3 -41 -11 -47 -16 -9 -8 -13 -7 -13 3 0 12 -2 12 -9 0 -5 -7 -26 -14 -47 -15
-22 -1 -44 -5 -50 -9 -6 -3 -21 -5 -33 -2 -11 2 -21 0 -21 -4 0 -4 -19 -8 -42
-10 -23 -1 -48 -6 -57 -11 -8 -4 -25 -4 -37 0 -12 5 -25 6 -28 3 -3 -3 -34 -7
-68 -10 -35 -2 -76 -5 -93 -7 -16 -1 -36 2 -44 8 -11 8 -13 8 -8 0 4 -7 -27
-9 -106 -6 -62 2 -147 5 -189 5 -43 1 -78 5 -78 8 0 5 -35 8 -127 12 -7 0 -13
4 -13 8 0 4 -16 6 -35 4 -20 -1 -35 3 -35 9 0 6 -5 4 -10 -4 -8 -12 -10 -12
-10 -1 0 8 -3 12 -6 9 -3 -4 -20 -2 -37 3 -18 5 -43 11 -57 14 -53 10 -66 14
-95 26 -16 7 -36 11 -42 10 -7 -1 -13 2 -13 7 0 4 -16 14 -36 21 -49 18 -114
73 -154 131 -11 16 -18 18 -26 10z"/>
<path d="M2228 6103 c-10 -2 -18 -9 -18 -14 0 -5 -7 -9 -15 -9 -9 0 -18 -7
-21 -15 -4 -8 -10 -12 -15 -9 -5 3 -9 0 -9 -6 0 -6 -11 -15 -25 -22 -13 -6
-22 -15 -19 -19 3 -5 -2 -9 -10 -9 -9 0 -16 -4 -16 -10 0 -5 -5 -10 -11 -10
-7 0 -20 -10 -30 -22 -11 -11 -19 -19 -19 -16 0 7 -72 -56 -151 -133 -38 -36
-71 -64 -74 -61 -3 3 -5 0 -5 -7 0 -6 -10 -22 -23 -34 -13 -12 -46 -51 -75
-87 -28 -36 -59 -74 -69 -85 -19 -22 -23 -29 -23 -46 0 -5 -4 -8 -9 -5 -5 3
-11 -1 -14 -9 -11 -27 18 -5 63 50 25 30 51 55 58 55 6 0 12 6 12 13 1 6 19
26 40 42 21 17 39 34 40 38 0 4 12 19 28 32 l27 24 345 0 c249 0 346 3 348 11
2 6 17 25 33 41 22 22 37 29 68 29 62 0 123 -45 113 -84 -2 -4 2 -14 9 -22 14
-17 -12 -78 -39 -93 -9 -5 -15 -12 -12 -14 10 -10 70 -15 76 -6 3 5 11 6 17 2
7 -4 46 -6 87 -6 86 2 123 -14 104 -45 -6 -9 -15 -15 -19 -14 -4 2 -12 -2 -16
-10 -5 -7 -9 -8 -9 -3 0 6 -22 10 -50 10 -27 0 -50 -4 -50 -10 0 -7 -3 -7 -8
0 -9 12 -172 13 -172 1 0 -5 -7 -3 -15 4 -12 10 -15 10 -15 -1 0 -9 -3 -10 -8
-4 -8 12 -113 12 -132 0 -9 -6 -11 -4 -5 6 7 11 6 12 -6 2 -8 -6 -20 -8 -27
-4 -7 4 -36 6 -65 4 -66 -4 -65 -4 -109 0 -21 2 -38 0 -38 -4 0 -5 -10 -5 -22
-1 -29 9 -59 8 -76 -1 -7 -5 -12 -3 -12 3 0 7 -6 8 -19 0 -14 -7 -22 -7 -27 1
-4 8 -9 7 -15 -2 -5 -8 -9 -9 -9 -4 0 11 -100 12 -118 1 -7 -4 -12 -3 -12 2 0
6 -9 8 -20 5 -11 -3 -20 -9 -20 -14 0 -12 -37 -49 -43 -42 -3 2 -8 -5 -12 -16
-3 -12 -11 -19 -16 -16 -5 4 -9 2 -9 -4 0 -9 -46 -61 -55 -61 -2 0 -17 -13
-33 -30 -17 -16 -29 -30 -27 -30 7 0 -46 -50 -53 -50 -4 -1 -20 -19 -37 -40
-16 -21 -33 -39 -37 -40 -6 0 -46 -38 -81 -78 -16 -18 -17 -25 -6 -61 7 -23
16 -41 21 -41 5 0 6 -6 3 -12 -4 -7 7 2 24 20 17 18 31 30 31 27 0 -3 80 74
178 171 191 190 214 209 237 200 8 -3 15 0 15 7 0 7 3 8 8 2 4 -5 16 -10 27
-10 11 0 23 5 27 10 5 7 8 7 8 0 0 -5 11 -10 25 -10 14 0 25 5 25 10 0 7 3 7
8 0 4 -5 16 -10 27 -10 11 0 23 5 27 10 5 7 8 6 8 0 0 -6 9 -11 20 -11 11 0
20 4 20 9 0 4 5 5 11 1 14 -8 304 -8 318 1 6 3 11 2 11 -2 0 -13 58 -7 75 7 8
7 15 18 15 24 0 14 55 48 64 39 3 -3 6 -1 6 7 0 10 4 10 17 -1 14 -12 16 -12
8 0 -6 11 -2 13 20 7 15 -4 37 -14 49 -23 22 -17 64 -89 45 -77 -8 5 -9 2 -1
-12 23 -41 -42 -117 -102 -120 -40 -2 -94 23 -101 47 -4 10 -11 19 -16 19 -6
0 -8 4 -5 8 3 5 -145 9 -329 9 l-335 0 -220 -220 c-121 -121 -220 -226 -220
-233 0 -7 4 -15 9 -18 4 -3 7 -17 6 -31 -2 -14 1 -25 6 -25 5 0 8 -3 7 -7 -1
-5 4 -35 12 -68 7 -33 14 -71 15 -85 2 -14 4 -25 5 -25 2 0 4 -9 5 -20 2 -11
6 -40 10 -65 4 -25 8 -53 8 -62 1 -10 4 -18 7 -18 3 0 5 -38 5 -84 0 -46 3
-82 8 -79 4 2 7 -3 7 -12 0 -9 59 44 134 121 l135 137 128 2 c70 1 131 3 134
3 3 1 12 21 19 45 8 23 20 49 27 58 7 8 13 20 13 26 0 6 7 16 15 23 9 7 13 15
11 17 -2 3 3 13 12 23 27 29 37 43 67 88 15 23 32 42 36 42 5 0 9 5 9 10 0 10
10 22 92 110 18 19 62 60 98 90 36 30 67 58 70 61 11 11 165 104 169 101 2 -2
7 2 12 10 5 7 12 13 16 14 26 2 63 17 63 25 0 5 8 9 18 9 10 0 29 8 42 17 14
10 26 17 28 15 1 -1 3 -2 5 -1 1 0 9 2 17 4 8 2 34 11 57 19 23 9 55 18 70 21
15 2 43 9 61 14 18 5 35 10 37 10 3 1 6 1 8 2 1 1 16 3 32 5 17 2 48 6 70 9
50 6 260 7 300 1 95 -15 114 -19 158 -31 26 -8 47 -11 47 -7 0 3 5 1 11 -5 6
-6 18 -9 25 -6 8 3 14 1 14 -5 0 -5 16 -13 36 -17 20 -3 44 -10 53 -15 35 -18
76 -33 84 -32 4 1 7 -2 7 -8 0 -5 7 -10 15 -10 14 0 78 -32 101 -51 6 -5 14
-6 17 -2 4 3 7 2 7 -4 0 -6 14 -16 30 -23 17 -7 30 -17 30 -23 0 -6 3 -8 6 -4
5 5 27 -10 59 -40 8 -7 16 -13 19 -13 22 0 236 -219 236 -240 0 -6 4 -8 10 -5
6 3 10 -1 10 -9 0 -8 8 -20 18 -25 9 -6 13 -11 7 -11 -6 0 -5 -3 1 -8 27 -18
138 -198 149 -242 10 -37 10 -37 245 -36 146 1 231 -3 231 -9 1 -5 3 -120 4
-255 1 -135 3 -251 4 -257 0 -7 12 -13 26 -13 14 0 26 6 26 13 2 12 4 51 10
197 1 47 8 88 14 92 6 5 6 8 -2 8 -7 0 -10 9 -7 23 3 12 7 45 9 72 2 28 6 60
9 72 2 12 8 53 12 90 3 37 10 70 13 73 4 3 7 21 7 42 -1 20 2 34 7 31 4 -2 7
10 7 26 0 17 4 31 8 31 4 0 8 8 9 18 2 32 13 72 47 167 19 52 31 96 28 99 -3
3 0 6 7 6 7 0 9 5 6 10 -3 6 -2 10 3 10 9 0 25 37 23 53 -1 4 3 7 7 7 5 0 14
12 21 26 9 21 9 33 -1 55 -7 16 -16 29 -20 29 -5 0 -8 7 -8 15 0 8 -3 15 -8
15 -4 0 -18 21 -32 48 -14 26 -32 52 -40 59 -8 7 -11 13 -7 13 5 0 2 6 -5 13
-7 8 -24 28 -38 46 -14 18 -37 47 -52 64 -15 18 -28 35 -28 38 0 4 -6 9 -14
12 -13 5 -15 -13 -14 -114 1 -66 4 -122 8 -124 3 -2 5 -23 3 -47 -3 -39 0 -45
27 -60 59 -34 71 -126 22 -176 -15 -16 -36 -28 -45 -26 -9 1 -17 -1 -17 -5 0
-19 -67 -4 -91 20 -24 24 -27 25 -36 9 -6 -9 -8 -22 -4 -28 4 -7 7 -60 6 -118
-1 -79 -5 -108 -16 -115 -17 -11 -21 -11 -39 1 -15 9 -16 46 -23 595 -2 132
-5 245 -6 250 -2 6 -2 12 -1 15 6 16 4 70 -3 70 -5 0 -5 5 -1 12 10 15 11 68
2 68 -4 0 -5 6 -2 13 3 8 -11 26 -32 43 -59 46 -108 87 -126 108 -10 10 -18
16 -18 13 0 -4 -9 1 -19 11 -36 32 -50 42 -60 42 -5 0 -11 4 -13 8 -1 4 -20
18 -40 30 -26 16 -38 19 -44 11 -7 -11 7 -25 163 -169 91 -85 91 -83 88 -252
-2 -80 -6 -151 -9 -157 -4 -6 -4 -11 1 -11 4 0 8 -24 8 -53 0 -28 4 -55 10
-59 7 -5 6 -8 -1 -8 -7 0 -9 -15 -7 -37 5 -53 5 -54 0 -90 -2 -18 0 -33 5 -33
5 0 6 -6 2 -12 -11 -18 -12 -48 -2 -54 4 -3 6 -9 4 -13 -3 -4 10 -13 29 -20
23 -8 32 -17 28 -26 -3 -8 0 -15 7 -15 6 0 9 -4 5 -9 -3 -5 -1 -12 4 -15 15
-10 3 -78 -19 -98 -11 -10 -20 -22 -20 -26 0 -10 -48 -31 -54 -24 -3 3 -20 6
-37 7 -51 4 -88 50 -91 109 -1 44 2 52 33 81 19 18 35 38 37 46 2 7 3 101 2
209 -1 107 -2 251 -2 318 l-1 124 -43 43 c-23 24 -45 41 -48 38 -3 -4 -6 -2
-6 3 0 15 -57 74 -71 74 -7 0 -10 3 -6 6 3 3 -12 23 -34 45 -41 41 -50 42
-112 7 -12 -7 -25 -11 -29 -10 -5 1 -8 -2 -8 -7 0 -9 -57 -27 -72 -23 -5 1 -8
-2 -8 -6 0 -5 -6 -9 -12 -10 -35 -3 -54 -8 -59 -14 -3 -5 -17 -9 -32 -10 -15
-1 -27 -5 -27 -8 0 -3 -8 -7 -17 -8 -26 -2 -56 -8 -73 -15 -29 -11 -76 -19
-125 -24 -27 -2 -54 -8 -61 -13 -6 -6 -13 -8 -16 -5 -2 3 -29 1 -59 -4 -130
-23 -260 -34 -406 -35 -63 -1 -109 -5 -105 -10 3 -5 -1 -6 -8 -1 -7 4 -56 9
-109 11 -53 1 -127 5 -166 9 -38 4 -89 8 -112 9 -24 0 -43 3 -43 6 0 3 -15 5
-32 5 -18 -1 -50 3 -71 7 -20 5 -54 11 -75 14 -20 3 -42 10 -49 15 -7 7 -14 6
-18 -1 -4 -7 -11 -7 -18 -2 -7 5 -56 19 -109 32 -53 13 -95 27 -93 31 3 4 -4
5 -15 2 -11 -3 -26 0 -34 6 -8 7 -18 11 -22 10 -5 -1 -16 0 -24 3 -8 4 -24 9
-35 14 -11 4 -22 8 -25 9 -61 21 -160 72 -153 79 4 3 -1 6 -10 6 -9 0 -17 5
-17 10 0 10 -3 11 -32 3z"/>
<path d="M5168 5752 c-2 -9 -3 -44 -1 -77 1 -33 4 -151 5 -262 1 -112 4 -203
7 -203 3 1 22 15 42 33 l36 32 -3 80 c-2 44 -5 106 -7 137 -2 35 0 55 6 51 6
-3 7 -1 3 5 -4 7 -8 38 -10 70 -4 63 -15 92 -51 128 -20 20 -23 21 -27 6z"/>
<path d="M2615 5736 c-29 -31 -7 -90 34 -91 18 0 51 32 51 50 0 34 -63 66 -85
41z"/>
<path d="M1870 5658 c-10 -4 -23 -15 -29 -25 -6 -10 -11 -14 -11 -10 0 4 -21
-16 -47 -45 -25 -29 -52 -54 -60 -56 -7 -2 -13 -7 -13 -11 0 -5 -54 -63 -120
-129 -66 -67 -120 -119 -120 -116 0 3 -11 -8 -25 -24 -28 -33 -30 -49 -11 -74
12 -16 21 -9 104 71 50 49 93 86 96 83 4 -3 6 0 6 6 0 15 168 182 182 182 6 0
9 3 5 6 -8 8 12 28 36 37 10 4 16 11 12 16 -6 11 31 25 44 16 5 -3 12 -1 16 5
4 6 10 8 15 5 10 -6 340 -9 346 -3 2 2 28 1 59 -2 31 -3 58 -4 60 -1 7 6 145
2 169 -6 16 -5 15 -1 -5 18 -14 13 -30 33 -36 43 -10 18 -27 19 -332 20 -177
1 -331 -2 -341 -6z"/>
<path d="M2729 5417 c-18 -14 -32 -57 -17 -57 5 0 7 -4 4 -9 -9 -13 37 -29 60
-20 26 9 38 25 25 34 -6 3 -8 12 -4 20 13 34 -35 57 -68 32z"/>
<path d="M5257 5193 c-14 -4 -17 -13 -15 -41 5 -45 26 -59 65 -43 21 8 29 19
29 36 0 14 -4 25 -9 25 -4 0 -6 4 -3 9 11 16 -27 24 -67 14z"/>
<path d="M3437 5184 c-2 -2 -93 -13 -157 -20 -14 -1 -27 -3 -30 -4 -3 -1 -8
-2 -12 -1 -5 0 -8 -4 -8 -11 0 -6 -3 -9 -6 -5 -4 3 -22 0 -40 -8 -19 -8 -34
-12 -34 -10 0 3 -24 -5 -52 -16 -29 -12 -57 -22 -63 -23 -5 -1 -30 -13 -55
-26 -25 -13 -48 -24 -51 -25 -29 -2 -286 -196 -288 -217 -1 -3 -19 -25 -41
-47 -23 -23 -38 -41 -35 -41 4 0 0 -7 -8 -15 -8 -8 -25 -30 -37 -50 -12 -19
-26 -35 -31 -35 -5 0 -8 -3 -7 -7 3 -13 -24 -63 -34 -63 -4 0 -8 -9 -8 -20 0
-11 -4 -20 -10 -20 -5 0 -9 -3 -8 -7 0 -5 -8 -28 -20 -53 -11 -24 -18 -48 -16
-52 3 -4 0 -8 -7 -8 -7 0 -10 -3 -7 -6 4 -3 0 -20 -7 -39 -8 -18 -11 -35 -8
-39 4 -3 -71 -6 -165 -6 l-171 0 -36 -35 c-19 -20 -35 -40 -35 -45 0 -6 -4
-10 -9 -10 -5 0 -61 -51 -124 -114 l-115 -115 148 -149 c82 -82 147 -152 144
-154 -5 -6 6 -7 94 -10 39 -2 72 1 72 5 0 5 5 5 12 1 6 -4 50 -7 98 -7 74 1
86 -2 87 -16 1 -10 11 -44 23 -77 12 -32 24 -67 27 -76 3 -10 9 -18 13 -18 5
0 11 -13 15 -30 4 -16 11 -30 16 -30 6 0 7 -4 4 -10 -3 -5 -1 -10 4 -10 6 0
11 -6 11 -14 0 -7 7 -19 15 -26 8 -7 12 -16 9 -21 -3 -5 -1 -9 4 -9 5 0 25
-24 45 -52 20 -29 50 -67 66 -84 17 -18 28 -34 25 -37 -3 -3 4 -8 15 -12 12
-3 19 -11 16 -16 -4 -5 -1 -9 5 -9 6 0 29 -16 50 -36 22 -20 50 -44 62 -52 13
-9 26 -21 30 -26 4 -6 8 -7 8 -2 0 5 9 -1 20 -14 11 -13 20 -20 20 -16 0 4 15
-3 33 -16 17 -13 34 -23 37 -24 3 0 39 -17 80 -36 112 -52 253 -92 362 -101
15 -1 30 -5 33 -9 4 -4 18 -3 31 2 14 6 26 6 29 -1 4 -6 13 -6 23 0 9 5 26 5
39 0 12 -4 25 -4 27 0 3 5 19 7 36 6 17 -1 33 1 36 6 3 5 10 9 15 9 6 0 7 -6
3 -12 -6 -10 -4 -10 7 -2 8 7 37 14 64 18 28 3 61 8 75 11 14 4 36 8 49 11 13
3 37 12 53 20 16 8 33 12 37 9 5 -3 11 0 13 5 2 6 10 12 18 14 13 2 75 31 153
72 15 9 27 20 27 25 0 6 4 8 8 5 5 -3 18 4 30 14 12 11 24 20 28 20 4 0 15 10
25 22 11 11 19 18 19 15 0 -4 18 11 40 33 22 22 45 40 50 40 6 0 10 3 10 8 0
7 20 31 76 94 13 15 24 32 24 38 0 5 3 10 8 10 7 0 67 94 115 181 14 26 38 83
53 127 l27 80 113 -1 c63 -1 114 2 114 6 0 5 5 5 12 1 17 -11 108 -11 108 0 0
5 6 4 13 -2 7 -6 17 -8 23 -4 11 8 12 61 1 79 -4 6 -4 14 1 17 10 6 9 66 -1
83 -4 6 -3 14 2 17 10 7 9 25 -2 43 -4 6 -4 14 1 17 10 6 9 66 -1 83 -4 6 -3
14 2 17 10 7 9 25 -2 43 -4 6 -4 14 1 17 10 6 9 66 -1 83 -4 6 -3 14 2 17 10
7 9 25 -2 43 -4 6 -3 14 1 17 5 3 8 15 7 28 l-2 23 -202 3 c-153 2 -201 5
-199 15 5 26 -73 215 -94 228 -5 3 -9 10 -9 15 2 10 -75 130 -96 152 -7 7 -13
18 -13 23 0 5 -7 9 -16 9 -8 0 -13 4 -10 8 2 4 -22 34 -55 66 -32 32 -59 62
-59 67 0 5 -6 9 -13 9 -8 0 -24 11 -37 25 -13 14 -27 25 -32 25 -9 0 -17 5
-61 44 -16 14 -42 28 -58 31 -16 4 -27 11 -23 16 3 5 -1 9 -9 9 -9 0 -35 10
-59 21 -62 31 -82 40 -98 43 -8 2 -24 6 -35 10 -11 5 -27 10 -35 14 -8 3 -21
4 -27 3 -7 -1 -13 2 -13 7 0 5 -10 8 -22 7 -13 -1 -28 2 -34 7 -7 5 -16 8 -20
6 -5 -1 -34 2 -64 6 -51 8 -207 15 -213 10z m108 -200 c56 -2 170 -18 170 -24
0 -1 14 -4 30 -6 28 -4 50 -11 100 -30 11 -4 23 -8 27 -8 4 -1 12 -6 19 -13 6
-6 18 -9 25 -6 8 3 14 0 14 -6 0 -6 3 -10 8 -9 26 7 183 -102 265 -185 55 -55
158 -192 163 -217 4 -19 17 -39 24 -35 4 2 7 -3 7 -13 0 -23 25 -82 36 -82 4
0 6 -4 3 -9 -4 -5 3 -29 13 -54 11 -25 17 -48 14 -50 -3 -3 -1 -12 3 -19 9
-15 12 -31 20 -110 4 -32 10 -55 15 -53 4 3 4 -8 -1 -25 -5 -19 -5 -30 1 -30
6 0 7 -5 4 -10 -4 -6 -8 -41 -10 -78 -4 -62 -7 -79 -20 -132 -3 -11 -7 -29 -9
-39 -3 -11 -10 -29 -16 -40 -6 -12 -9 -21 -6 -21 6 0 -46 -125 -71 -170 -39
-71 -80 -129 -87 -123 -3 3 -6 1 -6 -5 0 -20 -97 -122 -152 -161 -13 -8 -31
-23 -41 -32 -9 -8 -30 -22 -45 -30 -15 -8 -30 -18 -34 -24 -4 -5 -11 -10 -15
-10 -4 -1 -31 -13 -60 -28 -29 -15 -59 -27 -68 -27 -8 0 -15 -4 -15 -8 0 -5
-24 -14 -52 -22 -29 -8 -60 -16 -68 -18 -8 -2 -31 -5 -50 -7 -19 -2 -35 -4
-35 -5 0 -3 -38 -10 -77 -14 -20 -2 -41 -7 -47 -11 -6 -3 -11 -1 -11 5 0 6 -5
8 -12 4 -12 -8 -59 -7 -102 2 -12 2 -32 6 -46 9 -64 12 -154 37 -160 44 -5 7
-26 13 -50 15 -8 0 -17 3 -20 6 -3 3 -32 19 -65 35 -33 15 -62 31 -65 34 -3 3
-17 12 -32 20 -16 8 -28 18 -28 23 0 4 -4 8 -10 8 -20 0 -165 138 -205 195
-11 16 -25 33 -30 39 -29 30 -115 196 -119 228 -1 3 -4 10 -8 14 -5 4 -8 16
-8 26 0 10 -4 18 -8 18 -5 0 -9 6 -9 13 -1 20 -13 89 -18 96 -2 4 -5 26 -6 49
-2 23 -7 42 -11 42 -5 0 -4 9 2 20 6 11 7 20 2 20 -5 0 -8 12 -7 28 2 15 6 63
9 106 4 44 10 84 14 90 3 6 7 20 8 31 5 48 41 149 80 225 16 30 27 58 26 63
-1 4 3 7 8 7 6 0 10 6 10 13 0 6 12 23 25 36 14 13 25 27 25 32 0 25 156 180
230 228 30 20 57 38 60 42 12 13 140 68 195 84 33 9 67 21 76 25 17 9 96 21
162 25 21 1 40 5 44 8 3 4 11 3 17 0 6 -4 34 -8 61 -9z"/>
<path d="M3479 4739 c-9 -4 -26 -7 -37 -4 -28 5 -37 -11 -15 -24 10 -6 15 -11
11 -11 -11 0 38 -46 56 -53 11 -4 28 6 50 31 41 44 41 57 1 57 -16 0 -35 3
-40 7 -6 3 -18 2 -26 -3z"/>
<path d="M3120 4632 c-59 -20 -230 -177 -230 -211 0 -4 -9 -18 -20 -31 -11
-13 -20 -26 -20 -29 0 -13 190 -193 190 -181 0 8 2 11 6 8 4 -5 63 51 222 215
l54 54 -39 39 c-21 21 -41 38 -45 36 -5 -1 -8 2 -8 6 0 9 -53 67 -81 88 -8 6
-21 9 -29 6z"/>
<path d="M3770 4550 c-47 -48 -84 -92 -83 -98 1 -5 44 -50 94 -99 51 -48 97
-94 103 -101 64 -74 99 -91 111 -52 3 11 13 20 21 20 8 0 14 3 14 8 0 4 27 35
61 70 50 52 59 65 49 77 -7 8 -9 15 -6 15 11 0 -45 72 -100 126 -53 54 -152
125 -169 123 -5 -1 -48 -41 -95 -89z"/>
<path d="M3480 4253 c0 -9 -3 -14 -6 -10 -6 5 -125 -112 -209 -205 -18 -20
-36 -34 -39 -30 -3 3 -6 -1 -6 -8 0 -8 63 -76 140 -153 l141 -138 139 140 c77
77 140 142 140 145 0 11 -119 124 -125 118 -3 -3 -5 2 -5 11 0 8 -9 19 -20 22
-11 3 -20 11 -20 16 0 14 -100 109 -116 109 -8 0 -14 -7 -14 -17z"/>
<path d="M2764 4072 c-11 -7 -13 -153 -2 -162 7 -6 88 67 88 78 0 16 -76 91
-86 84z"/>
<path d="M4191 4042 c-45 -41 -50 -56 -23 -71 9 -6 13 -11 9 -11 -9 0 47 -50
60 -53 10 -2 12 163 2 169 -4 2 -25 -13 -48 -34z"/>
<path d="M2943 3722 c-51 -51 -93 -97 -93 -102 0 -5 7 -16 16 -24 8 -9 13 -16
9 -16 -3 0 9 -15 26 -34 17 -19 30 -37 30 -40 -1 -6 59 -65 104 -103 14 -12
34 -25 45 -28 11 -4 20 -10 20 -15 0 -4 9 -10 20 -13 14 -4 30 6 55 34 19 21
39 39 45 39 5 0 10 4 10 9 0 4 20 28 44 53 l44 45 -33 36 c-18 20 -36 33 -39
30 -3 -4 -6 -2 -6 4 0 5 -46 57 -102 114 l-103 104 -92 -93z"/>
<path d="M3822 3671 l-143 -144 96 -95 c79 -78 98 -92 110 -82 8 7 15 9 15 6
0 -4 6 -1 14 6 30 29 67 58 74 58 4 1 25 24 47 52 22 28 45 56 50 62 6 6 22
27 37 47 32 43 32 45 -75 152 l-82 82 -143 -144z"/>
<path d="M3455 3301 c-22 -21 -41 -42 -42 -47 -1 -5 38 -9 87 -9 52 0 88 4 87
10 -2 12 -76 85 -86 85 -4 0 -25 -17 -46 -39z"/>
<path d="M1042 5144 c-18 -19 -29 -34 -25 -34 4 0 -3 -7 -15 -16 -12 -8 -22
-23 -22 -32 0 -10 -7 -27 -15 -39 -14 -20 -11 -53 5 -53 4 0 25 -18 46 -39 49
-49 67 -71 59 -71 -4 0 3 -14 15 -31 12 -16 20 -33 16 -36 -3 -3 1 -15 9 -27
8 -11 15 -28 15 -38 0 -10 4 -18 8 -18 4 0 9 -10 10 -22 4 -38 7 -52 15 -66 5
-7 9 -26 9 -42 1 -17 4 -33 8 -35 4 -2 6 -20 5 -40 0 -19 2 -35 5 -35 4 0 7
-12 7 -27 1 -16 5 -50 9 -78 4 -27 7 -74 7 -102 1 -31 5 -53 11 -53 6 0 4 -5
-4 -10 -8 -5 -10 -10 -5 -10 6 0 10 -67 10 -179 0 -101 -3 -177 -8 -174 -5 3
-4 -4 2 -14 6 -11 8 -23 4 -27 -3 -3 -7 -40 -9 -81 -2 -42 -7 -90 -12 -108 -4
-18 -7 -44 -7 -59 1 -16 -2 -28 -5 -28 -4 0 -6 -15 -5 -32 2 -18 -1 -37 -5
-43 -4 -5 -11 -23 -14 -40 -22 -102 -22 -105 -40 -155 -9 -25 -19 -54 -21 -65
-3 -11 -14 -32 -25 -47 -11 -15 -20 -31 -20 -36 0 -14 -78 -87 -92 -87 -33 0
-3 -75 61 -154 51 -63 66 -67 98 -33 43 45 64 72 55 72 -4 0 -2 4 4 8 25 16
115 234 130 312 3 14 8 34 11 45 8 22 9 27 17 70 3 17 8 41 11 55 3 14 8 43
11 65 3 22 7 54 9 70 6 41 16 131 20 180 1 22 4 40 5 40 1 0 3 100 4 223 1
122 -2 222 -7 222 -4 0 -5 6 -1 12 11 17 13 48 3 48 -4 0 -8 30 -9 68 -4 104
-5 112 -12 112 -4 0 -5 12 -4 28 2 15 1 32 -3 37 -3 6 -6 26 -6 45 -1 20 -4
41 -8 47 -4 6 -10 26 -13 45 -7 48 -10 61 -19 81 -4 9 -4 24 -1 33 3 8 2 13
-3 10 -8 -5 -16 19 -25 79 -3 18 -15 51 -33 95 -3 8 -5 18 -5 22 4 20 -86 173
-114 195 -47 35 -65 35 -102 -3z"/>
<path d="M5876 5165 c-11 -8 -16 -15 -12 -15 5 0 -3 -11 -17 -25 -14 -14 -33
-41 -42 -60 -9 -19 -20 -35 -25 -35 -6 0 -9 -3 -8 -7 1 -5 -7 -26 -17 -48 -10
-22 -19 -44 -20 -50 -2 -5 -12 -34 -24 -62 -11 -29 -19 -53 -16 -53 2 0 -2
-18 -10 -40 -8 -22 -14 -42 -15 -45 0 -3 0 -6 -1 -7 -6 -20 -21 -103 -23 -129
-2 -14 -6 -31 -9 -36 -4 -6 -4 -18 -1 -27 3 -9 2 -16 -2 -16 -5 0 -9 -10 -10
-22 0 -13 -4 -54 -8 -93 -5 -38 -9 -89 -9 -112 -1 -24 -4 -43 -7 -43 -3 0 -6
-9 -6 -20 0 -11 4 -20 9 -20 6 0 6 -5 1 -12 -5 -7 -9 -47 -9 -88 l0 -75 36 -1
c20 -1 47 5 60 12 13 7 21 13 17 14 -10 0 23 31 47 45 10 6 17 15 17 20 0 6 4
16 10 23 7 8 7 12 -2 12 -8 0 -10 6 -5 18 4 9 9 49 11 87 2 39 6 88 10 110 3
22 6 55 7 73 0 17 3 32 7 32 4 0 7 10 6 23 -1 18 7 59 28 147 3 8 9 27 15 43
6 15 8 27 6 27 -7 0 47 122 73 164 29 47 48 67 85 91 31 20 34 37 11 59 -8 9
-13 16 -9 16 6 0 -12 37 -29 57 -65 78 -89 91 -120 68z"/>
<path d="M4924 5058 c-9 -17 -10 -28 -4 -28 5 0 9 -3 9 -7 -4 -28 3 -34 40
-31 30 1 42 7 50 25 9 19 6 27 -12 47 -30 32 -65 30 -83 -6z"/>
<path d="M6120 4673 c-5 -25 -5 -28 -13 -40 -5 -7 -5 -17 -2 -23 3 -5 1 -10
-6 -10 -7 0 -10 -2 -7 -6 3 -3 1 -22 -4 -42 -5 -20 -11 -46 -13 -57 -2 -11 -6
-31 -9 -45 -7 -30 -19 -127 -19 -157 -1 -13 -5 -23 -9 -23 -5 0 -4 -8 1 -19 6
-10 7 -21 3 -25 -8 -9 -12 -427 -4 -441 3 -5 7 -38 8 -72 1 -35 5 -71 9 -81 8
-19 17 -91 18 -139 1 -18 4 -33 7 -33 3 0 6 -14 7 -31 1 -17 7 -37 13 -44 5
-6 7 -14 4 -18 -3 -3 1 -18 9 -33 l14 -27 8 29 c5 16 7 33 6 38 -1 4 2 13 7
20 4 6 8 26 8 44 -1 17 2 32 7 32 4 0 7 15 7 34 0 19 3 37 8 39 4 3 7 28 7 56
0 28 3 51 6 51 3 0 6 23 5 50 -1 28 2 50 5 50 7 0 7 6 8 265 1 110 -1 216 -4
235 -3 19 -6 59 -8 87 -1 29 -4 53 -7 53 -3 0 -5 15 -4 33 0 17 -2 37 -5 42
-3 6 -6 15 -7 20 -7 44 -14 75 -23 103 -5 18 -10 33 -10 35 0 2 -4 16 -14 47
-4 10 -6 11 -7 3z"/>
<path d="M863 4644 c-4 -16 -6 -35 -5 -41 2 -7 -2 -13 -9 -13 -6 0 -9 -6 -6
-14 3 -7 0 -19 -6 -25 -6 -6 -8 -11 -5 -11 3 0 1 -21 -6 -47 -7 -27 -12 -60
-12 -75 1 -16 -1 -28 -4 -28 -4 0 -6 -15 -5 -32 0 -18 -3 -38 -7 -45 -5 -6 -4
-14 2 -18 8 -5 8 -11 1 -19 -6 -7 -12 -59 -13 -115 -1 -56 -6 -105 -10 -107
-5 -3 -5 -11 -1 -17 11 -18 13 -96 2 -103 -5 -3 -6 -11 -2 -17 5 -7 9 -25 9
-42 5 -133 7 -161 12 -169 3 -5 7 -25 8 -45 11 -117 24 -212 31 -231 4 -8 6
-18 5 -21 0 -3 5 -22 12 -43 12 -36 32 -50 30 -20 -1 8 3 14 8 14 5 0 8 8 7
18 -1 9 0 20 1 25 1 4 4 12 5 17 1 6 3 11 5 13 2 2 6 25 13 77 3 19 10 69 16
110 6 41 13 100 14 130 2 30 6 61 10 68 5 7 3 12 -3 12 -7 0 -8 5 -3 13 10 16
11 337 0 337 -4 0 -3 8 2 19 6 10 7 21 4 25 -4 4 -8 26 -9 49 -4 77 -21 197
-39 272 -28 121 -40 143 -52 99z"/>
<path d="M5763 4018 c-10 -13 -10 -45 1 -55 2 -3 10 -2 16 2 8 5 8 10 0 20 -6
7 -8 20 -4 29 7 19 0 21 -13 4z"/>
<path d="M5637 3964 c-3 -3 -13 -7 -23 -8 -15 -2 -19 -12 -19 -49 0 -47 10
-56 50 -47 19 4 86 3 91 -2 2 -3 6 -15 9 -26 4 -21 -18 -37 -36 -26 -5 3 -9 0
-9 -6 0 -7 -6 -8 -17 -2 -37 18 -83 3 -79 -26 2 -9 -2 -20 -8 -24 -8 -5 -7 -8
2 -8 6 0 12 -11 12 -24 0 -23 19 -30 36 -13 12 12 26 8 18 -5 -6 -10 -4 -10 7
-2 15 11 24 11 55 1 14 -5 21 -15 20 -30 -1 -19 -7 -22 -46 -24 -69 -3 -89
-11 -87 -33 1 -11 4 -20 7 -20 3 0 5 -24 5 -53 0 -28 2 -56 5 -62 3 -5 5 -19
6 -30 2 -42 17 -115 23 -115 4 0 7 -12 7 -27 1 -32 7 -59 28 -127 8 -27 12
-54 9 -59 -3 -6 -1 -7 4 -4 6 4 14 -7 18 -26 4 -17 9 -34 9 -37 8 -23 71 -137
80 -142 6 -4 7 -8 3 -8 -4 0 -3 -6 3 -12 5 -7 23 -28 39 -47 23 -28 33 -33 55
-27 34 8 78 55 96 101 5 14 13 25 18 25 5 0 9 6 10 13 1 6 3 22 4 34 2 12 -1
23 -7 24 -12 3 -91 79 -87 85 1 2 -6 13 -16 24 -17 19 -69 133 -78 173 -2 9
-7 27 -10 40 -19 75 -33 150 -38 203 -1 16 -5 34 -8 40 -5 10 -10 73 -12 169
0 33 -5 63 -10 67 -6 4 -5 12 1 20 8 10 8 20 -2 38 -8 14 -14 21 -15 16 0 -5
-18 10 -40 35 -22 24 -40 40 -40 36 0 -4 -8 -3 -19 2 -10 6 -21 8 -24 5z"/>
<path d="M5304 3952 c-19 -3 -21 -9 -19 -41 3 -50 10 -59 37 -54 20 4 23 11
24 48 0 46 -6 53 -42 47z"/>
<path d="M5287 3783 c-6 -10 -1 -72 6 -79 2 -3 16 -7 31 -10 25 -4 26 -3 26
46 0 49 -1 50 -29 50 -17 0 -32 -3 -34 -7z"/>
<path d="M1649 3688 c-3 -7 -9 -47 -12 -89 -2 -25 -7 -51 -11 -57 -3 -6 -2
-14 4 -17 7 -4 7 -11 2 -18 -5 -7 -10 -19 -10 -27 -2 -21 -10 -78 -18 -120 -4
-19 -8 -44 -10 -55 -2 -11 -8 -38 -14 -60 -7 -22 -11 -48 -11 -57 0 -10 -5
-18 -10 -18 -6 0 -9 -8 -8 -17 1 -10 0 -20 -1 -23 -1 -3 -4 -16 -6 -30 -2 -13
-8 -27 -12 -30 -6 -5 -8 -13 -14 -62 -1 -10 -5 -18 -9 -18 -3 0 -12 -20 -19
-45 -7 -25 -17 -48 -21 -51 -5 -3 -9 -14 -9 -25 0 -11 -4 -18 -9 -15 -5 4 -12
-7 -16 -23 -3 -16 -13 -35 -21 -41 -7 -7 -12 -16 -9 -20 3 -5 -5 -16 -17 -24
-12 -9 -19 -16 -15 -16 17 0 -81 -94 -130 -126 l-51 -34 29 -75 c15 -41 38
-94 49 -117 11 -23 20 -47 20 -54 0 -7 4 -14 8 -16 10 -3 34 -46 53 -90 6 -16
15 -28 21 -28 5 0 6 -4 3 -10 -3 -5 -2 -10 3 -10 5 0 13 -8 16 -17 8 -22 28
-56 45 -77 7 -9 10 -16 5 -16 -5 0 -4 -4 2 -8 6 -4 23 -29 38 -57 15 -27 31
-54 36 -58 9 -10 504 -12 519 -3 5 3 12 0 14 -6 7 -18 9 16 10 242 l2 195 344
2 343 2 -5 -24 c-2 -15 0 -25 7 -25 7 0 7 -3 1 -8 -13 -9 -13 -112 0 -112 6 0
6 -3 0 -8 -14 -9 -13 -105 0 -114 6 -5 6 -8 -1 -8 -10 0 -12 -126 -1 -136 7
-8 1496 -10 1491 -2 -2 4 0 10 6 13 8 5 7 12 -2 23 -7 9 -8 13 -3 10 13 -8 12
133 -1 153 -4 7 -3 10 3 6 14 -8 11 95 -2 105 -7 5 -7 8 0 8 6 0 10 18 10 39
0 22 -4 37 -9 34 -5 -4 -6 -1 0 8 5 8 9 19 9 24 0 6 120 10 340 10 l340 0 1
-101 c0 -55 4 -106 8 -112 4 -7 4 -12 -1 -12 -10 0 -8 -93 1 -109 4 -6 4 -11
-1 -11 -4 0 -8 -20 -8 -45 l0 -45 50 0 c323 -4 489 0 501 12 12 12 26 35 74
118 11 19 31 53 45 75 14 22 30 52 36 68 6 15 15 27 20 27 5 0 9 4 9 9 0 5 20
52 45 105 25 53 45 103 45 111 0 8 5 15 11 15 6 0 9 7 5 15 -3 8 -2 15 2 15 4
0 12 16 18 36 l12 36 -49 30 c-27 16 -49 33 -49 37 0 4 -11 14 -25 21 -13 7
-22 16 -20 20 3 5 -1 10 -8 13 -16 6 -88 111 -91 132 -1 9 -7 20 -12 23 -18
13 -103 236 -106 279 -2 13 -6 23 -11 23 -4 0 -7 8 -6 18 1 9 -1 24 -4 32 -7
20 -20 89 -21 115 -1 11 -4 22 -7 25 -4 3 -10 32 -13 65 -4 33 -9 75 -13 93
-3 18 -6 51 -7 73 -2 48 -15 62 -52 57 l-28 -3 -1 -85 c0 -47 -4 -90 -8 -97
-4 -6 -24 -11 -44 -10 -36 2 -38 0 -44 -36 -3 -20 -3 -37 0 -37 3 0 7 -100 7
-223 2 -296 4 -318 23 -325 9 -3 23 -12 31 -21 19 -19 55 -105 40 -96 -5 3
-10 -3 -10 -15 0 -26 -35 -63 -76 -79 -33 -13 -81 -11 -92 5 -4 5 -16 17 -27
26 -20 17 -21 17 -20 -115 1 -119 -1 -134 -19 -150 -17 -15 -21 -15 -35 -3
-14 13 -16 48 -16 250 0 130 -2 236 -5 236 -3 0 -5 13 -6 30 -1 17 3 27 9 23
6 -3 7 -1 3 6 -12 19 -13 161 -1 161 6 0 3 5 -5 10 -8 5 -10 10 -5 10 6 0 11
9 11 20 0 11 -3 20 -6 20 -4 0 -7 57 -7 128 -1 199 7 177 -68 177 -46 0 -65
-4 -65 -12 0 -7 5 -13 11 -13 5 0 8 -4 4 -9 -3 -5 -2 -12 2 -14 5 -3 8 -96 7
-206 0 -111 2 -201 6 -201 4 0 7 -7 7 -15 0 -8 -5 -15 -10 -15 -6 0 -6 -5 0
-12 13 -17 12 -48 -1 -48 -6 0 -5 -4 2 -9 17 -11 17 -21 0 -32 -10 -7 -10 -9
2 -9 13 0 13 -1 0 -10 -8 -5 -10 -10 -3 -10 9 0 11 -26 3 -37 -3 -4 -3 -42 0
-48 3 -7 7 -23 9 -36 0 -5 5 -8 10 -5 10 7 41 -21 59 -52 10 -18 10 -22 0 -22
-10 0 -10 -2 -1 -8 6 -4 10 -19 9 -33 -3 -30 -30 -72 -39 -62 -4 3 -7 -1 -7
-10 0 -35 -83 -38 -136 -6 -33 20 -43 41 -48 97 -2 28 4 41 37 74 l41 41 -2
191 c-1 179 -8 465 -11 476 -1 3 -13 -20 -28 -50 -15 -30 -30 -57 -33 -60 -3
-3 -21 -30 -39 -60 -60 -99 -144 -196 -258 -301 -45 -41 -174 -134 -223 -160
-25 -13 -47 -27 -50 -30 -3 -4 -16 -10 -30 -14 -14 -4 -27 -11 -30 -15 -5 -8
-201 -76 -243 -84 -49 -11 -69 -15 -85 -20 -27 -9 -93 -18 -148 -20 -27 -1
-54 -5 -60 -8 -5 -3 -54 -4 -109 -2 -133 4 -205 13 -280 34 -22 7 -48 12 -57
13 -10 1 -18 5 -18 9 0 4 -9 5 -20 3 -11 -2 -20 0 -20 6 0 5 -12 9 -26 9 -14
0 -23 3 -21 8 3 4 -5 8 -16 9 -12 0 -38 8 -57 16 -19 8 -39 15 -44 15 -5 0
-12 4 -15 9 -8 11 -63 37 -73 35 -5 -1 -8 2 -8 7 0 5 -10 13 -22 17 -23 7 -68
36 -102 67 -11 9 -24 17 -29 17 -4 0 -14 6 -21 13 -7 6 -37 32 -66 57 -29 25
-58 51 -64 57 -6 7 -31 34 -56 60 -25 27 -59 66 -75 88 -16 22 -34 43 -40 47
-5 4 -6 8 -2 8 4 0 -4 11 -18 25 -14 14 -25 32 -25 40 0 8 -4 15 -10 15 -5 0
-10 7 -10 15 0 8 -5 15 -10 15 -6 0 -9 3 -8 8 2 11 -14 45 -29 60 -7 7 -13 20
-13 28 0 8 -4 14 -8 14 -4 0 -8 10 -9 21 -1 12 -4 24 -7 27 -3 3 -65 5 -137 5
l-132 1 -128 128 c-116 116 -136 134 -140 126z"/>
<path d="M5053 3427 c-6 -9 -6 -289 0 -317 1 -8 6 -20 10 -27 4 -6 4 -14 -1
-17 -6 -3 -9 -287 -3 -305 0 -2 10 8 21 22 11 14 28 28 38 31 16 6 17 27 14
303 -2 164 -7 302 -12 307 -12 12 -60 14 -67 3z"/>
<path d="M5150 2755 c-7 -8 -18 -15 -26 -15 -9 0 -10 -8 -3 -32 14 -51 28 -60
66 -41 41 19 41 56 2 84 -24 16 -28 17 -39 4z"/>
<path d="M4824 2636 c-15 -8 -20 -20 -19 -43 2 -38 3 -40 30 -44 39 -6 65 11
65 40 0 43 -40 68 -76 47z"/>
<path d="M2378 2112 c-46 -2 -58 -6 -59 -20 -1 -21 -1 -133 0 -147 1 -7 35
-11 89 -10 l87 0 0 87 1 86 -31 4 c-16 1 -56 2 -87 0z"/>
<path d="M4529 2112 c-25 -3 -25 -4 -23 -85 1 -45 2 -85 3 -88 0 -4 39 -6 86
-6 70 1 85 3 86 16 4 65 3 144 -1 152 -6 9 -105 16 -151 11z"/>
<path d="M1780 1684 c0 -6 -19 -10 -47 -9 -26 2 -53 1 -59 -2 -12 -4 -16 -143
-5 -143 4 0 23 14 44 31 l37 31 255 -4 c140 -1 255 -6 255 -10 0 -4 12 -3 28
1 15 5 35 5 44 2 10 -3 89 -5 178 -4 93 1 162 -3 166 -8 4 -6 11 -6 19 1 10 8
15 8 20 -1 6 -8 10 -7 16 2 7 11 9 11 9 -1 0 -13 1 -13 10 0 9 13 11 13 20 0
5 -8 10 -12 10 -7 0 7 31 -22 217 -206 l83 -81 1125 -1 c992 0 1126 2 1129 15
3 8 4 98 3 200 l-2 185 -35 0 c-19 0 -38 4 -42 10 -5 6 -8 6 -8 -1 0 -12 -58
-13 -77 -1 -5 4 -13 3 -17 0 -12 -12 -56 -11 -56 1 0 8 -2 8 -8 0 -6 -9 -54
-12 -72 -4 -3 1 -9 1 -15 0 -33 -8 -65 -6 -65 4 0 8 -2 8 -8 0 -7 -12 -60 -12
-78 -1 -6 3 -14 3 -18 -1 -12 -11 -86 -9 -86 2 0 7 -3 8 -8 1 -10 -14 -72 -14
-72 -1 0 8 -3 8 -8 1 -9 -14 -115 -13 -124 0 -5 6 -8 6 -8 -2 0 -10 -49 -11
-96 -2 -5 1 -11 0 -14 -1 -17 -8 -150 -4 -150 5 0 7 -3 7 -8 0 -10 -14 -72
-14 -72 -1 0 7 -3 7 -8 1 -4 -5 -14 -10 -22 -10 -8 0 -18 5 -22 10 -5 6 -8 6
-8 -2 0 -9 -48 -12 -70 -3 -3 1 -9 1 -15 0 -33 -8 -65 -6 -65 4 0 8 -2 8 -8 0
-7 -12 -60 -12 -78 -1 -6 3 -14 3 -18 -1 -12 -11 -86 -9 -86 2 0 7 -3 8 -8 1
-10 -14 -72 -14 -72 -1 0 8 -3 8 -8 1 -9 -14 -115 -13 -124 0 -5 6 -8 6 -8 -2
0 -10 -49 -11 -96 -2 -5 1 -11 0 -14 -1 -17 -8 -150 -4 -150 5 0 7 -3 7 -8 0
-10 -14 -72 -14 -72 -1 0 7 -3 7 -8 1 -4 -5 -14 -10 -22 -10 -8 0 -18 5 -22
10 -5 6 -8 6 -8 -2 0 -9 -48 -12 -70 -3 -3 1 -9 1 -15 0 -33 -8 -65 -6 -65 4
0 8 -2 8 -8 0 -7 -12 -60 -12 -78 -1 -6 3 -14 3 -18 -1 -12 -11 -86 -9 -86 2
0 7 -3 8 -8 1 -10 -14 -72 -14 -72 -1 0 8 -3 8 -8 1 -9 -14 -115 -13 -124 0
-5 6 -8 6 -8 -2 0 -10 -49 -11 -96 -2 -5 1 -11 0 -14 -1 -17 -8 -150 -4 -150
5 0 7 -3 7 -8 0 -10 -14 -72 -14 -72 -1 0 7 -3 7 -8 1 -4 -5 -14 -10 -22 -10
-8 0 -18 5 -22 10 -5 6 -8 6 -8 -2 0 -9 -48 -12 -70 -3 -3 1 -9 1 -15 0 -33
-8 -65 -6 -65 4 0 8 -2 8 -8 0 -7 -12 -60 -12 -78 -1 -6 3 -14 3 -18 -1 -12
-11 -86 -9 -86 2 0 8 -3 8 -8 1 -4 -6 -20 -11 -37 -11 -16 0 -33 5 -37 11 -5
7 -8 6 -8 -1z"/>
<path d="M1764 1517 c-11 -6 -25 -19 -32 -29 -7 -10 -17 -18 -23 -18 -29 0
-64 -80 -41 -94 5 -3 22 6 38 19 16 14 33 25 37 25 5 0 6 4 3 9 -8 12 18 21
33 11 7 -4 27 -5 44 -3 18 3 37 4 42 4 117 -9 239 -12 522 -14 189 -1 343 -5
343 -8 0 -4 13 -5 29 -4 20 2 33 -5 46 -21 10 -13 22 -24 27 -24 4 0 30 -22
57 -48 44 -44 78 -58 96 -41 3 3 -29 37 -71 75 -42 38 -96 88 -120 112 l-43
42 -143 1 c-378 1 -418 2 -418 13 0 7 -3 7 -8 1 -9 -13 -52 -15 -52 -3 0 5 -9
4 -19 -2 -14 -7 -21 -6 -24 3 -4 9 -6 9 -6 -1 -1 -7 -6 -10 -12 -6 -19 11
-284 12 -305 1z"/>
<path d="M1757 1355 c-13 -11 -39 -32 -57 -47 -34 -28 -31 -32 20 -29 131 7
220 8 220 3 0 -5 858 -8 892 -3 9 1 -49 59 -70 70 -10 4 -64 9 -121 9 -57 1
-106 4 -108 6 -3 3 -16 1 -30 -5 -13 -5 -22 -6 -20 -1 3 4 -70 8 -161 9 -92 1
-251 3 -354 5 -175 3 -188 2 -211 -17z"/>
<path d="M396 1004 c-3 -8 -1 -14 4 -14 6 0 10 -6 10 -13 0 -7 8 -20 18 -28
11 -9 25 -25 33 -35 20 -27 94 -84 110 -84 7 0 9 -3 6 -6 -14 -14 305 -170
324 -158 5 3 9 2 9 -3 0 -11 51 -34 61 -27 5 3 9 0 9 -6 0 -7 7 -10 15 -6 8 3
15 1 15 -4 0 -6 8 -10 18 -10 10 0 22 -3 26 -7 4 -5 11 -8 14 -9 33 -4 82 -18
82 -23 0 -4 8 -7 18 -8 33 -2 68 -9 77 -15 6 -3 28 -10 50 -14 53 -11 55 -11
58 -14 1 -1 11 -4 22 -6 20 -3 26 -4 105 -23 25 -7 56 -14 70 -16 14 -3 36 -8
50 -11 14 -3 34 -8 45 -10 28 -5 53 -11 105 -22 44 -10 103 -21 146 -26 11 -2
26 -6 32 -10 7 -4 12 -2 12 4 0 8 6 8 20 0 11 -6 25 -8 30 -5 6 3 10 3 10 -2
0 -4 15 -8 33 -9 17 -1 57 -4 87 -8 30 -4 73 -9 95 -11 22 -2 40 -4 40 -5 0
-4 46 -10 102 -12 35 -2 63 -5 63 -8 0 -3 28 -5 63 -5 34 0 68 -4 74 -9 8 -5
13 -4 13 3 0 7 5 9 12 5 6 -4 34 -9 62 -11 28 -2 74 -5 101 -7 28 -3 116 -7
197 -9 81 -3 152 -8 157 -12 6 -3 16 -3 22 0 6 4 -6 23 -29 46 -22 21 -37 41
-34 44 3 3 1 5 -5 5 -5 0 -29 19 -52 41 l-42 42 -43 -22 c-24 -11 -52 -21 -63
-21 -52 0 -104 53 -110 114 -5 48 40 104 84 104 3 0 10 6 14 14 5 8 9 8 9 2 0
-6 8 -11 18 -11 30 1 79 -36 91 -70 7 -18 12 -35 12 -38 -1 -5 48 -55 53 -55
2 0 23 -18 46 -40 23 -22 46 -40 51 -40 5 0 9 -6 9 -14 0 -8 9 -18 20 -21 11
-3 20 -10 20 -15 0 -5 13 -21 29 -37 26 -26 34 -29 92 -27 35 1 66 2 69 3 9 2
-89 91 -101 91 -5 0 -7 5 -4 10 3 6 1 10 -6 10 -6 0 -57 46 -113 103 -55 56
-120 119 -143 139 -24 20 -43 39 -43 42 0 3 -32 37 -71 76 -60 60 -73 69 -90
60 -10 -6 -19 -15 -19 -20 0 -6 -9 -10 -20 -10 -11 0 -20 -4 -20 -9 0 -23 -95
17 -111 46 -7 13 -15 23 -19 23 -11 0 -10 73 1 87 7 7 8 13 4 13 -4 0 7 13 25
29 l33 29 -562 0 -562 0 -36 -33 c-31 -28 -34 -35 -24 -54 7 -11 8 -21 3 -21
-4 0 -8 -10 -9 -22 -3 -31 -54 -78 -89 -82 -63 -7 -135 46 -136 100 -1 52 2
61 26 87 l23 25 -448 0 c-375 0 -448 -2 -453 -14z"/>
<path d="M2730 1009 c0 -5 3 -8 8 -7 12 4 62 -34 56 -43 -3 -5 -1 -9 5 -9 5 0
13 -9 16 -20 6 -17 105 -126 105 -115 0 2 36 -32 80 -74 44 -43 82 -76 85 -73
3 3 5 0 5 -6 0 -15 76 -92 91 -92 7 0 10 -3 7 -6 -3 -3 28 -38 69 -77 42 -40
91 -87 109 -104 18 -18 37 -33 43 -33 6 0 11 -4 11 -10 0 -32 56 -52 112 -41
4 0 -45 52 -109 114 -258 250 -283 275 -283 286 0 6 -3 10 -7 9 -8 -3 -54 39
-228 209 -92 89 -109 101 -140 101 -19 0 -35 -4 -35 -9z"/>
<path d="M2932 976 c24 -23 67 -62 95 -88 28 -26 48 -49 45 -52 -3 -3 -1 -6 5
-6 6 0 89 -78 185 -172 201 -198 299 -288 312 -288 5 0 7 -3 3 -6 -10 -10 50
-65 76 -70 33 -6 44 12 16 26 -11 7 -18 14 -16 17 3 2 -12 20 -33 39 -148 134
-238 223 -232 228 3 3 1 6 -5 6 -13 0 -73 57 -73 70 0 6 -4 10 -9 10 -5 0 -69
58 -143 129 -73 71 -149 144 -168 163 -24 23 -44 33 -68 34 l-34 1 44 -41z"/>
<path d="M3050 1011 c0 -3 23 -26 51 -51 28 -25 143 -136 256 -247 112 -112
208 -203 214 -203 6 0 8 -3 6 -7 -2 -5 7 -18 20 -30 13 -12 23 -20 23 -17 0 4
32 -26 72 -66 39 -39 74 -67 77 -63 9 12 325 10 333 -2 5 -7 8 -6 8 0 0 7 22
9 58 7 120 -7 267 -9 277 -3 6 3 35 7 65 8 65 3 151 11 200 19 19 3 56 6 83 7
26 1 47 4 47 7 0 3 19 5 43 4 23 0 47 3 52 6 6 4 17 7 25 8 8 0 33 3 55 6 22
4 56 9 75 11 19 2 51 7 70 10 19 4 49 8 65 11 17 2 41 6 55 9 14 3 40 8 57 11
18 2 61 11 95 20 35 8 72 17 83 19 40 8 110 26 125 32 8 3 22 7 30 8 8 1 35 8
60 15 25 7 54 14 65 15 11 2 39 11 63 19 24 9 51 18 60 20 9 1 24 6 32 9 14 5
89 30 100 32 14 4 67 26 83 35 10 6 22 8 27 5 6 -4 10 -3 10 2 0 8 47 33 63
33 5 0 21 9 37 20 15 11 30 17 34 13 3 -3 6 -1 6 5 0 7 6 12 14 12 7 0 19 7
26 15 7 9 15 13 18 11 6 -7 111 71 147 109 45 49 95 109 95 116 0 10 -3249 9
-3255 -1 -3 -4 7 -16 22 -25 15 -10 38 -32 52 -48 14 -17 44 -47 65 -66 21
-20 50 -46 63 -59 12 -13 23 -20 23 -17 0 3 11 -5 24 -19 13 -15 29 -26 36
-26 7 0 11 -3 7 -6 -10 -10 97 -113 108 -104 6 5 16 6 22 2 14 -9 136 -7 151
2 7 4 12 2 12 -4 0 -7 6 -8 19 0 11 5 22 7 24 3 6 -10 89 -9 105 1 7 4 12 2
12 -4 0 -7 6 -8 19 -1 10 6 21 7 25 4 3 -3 25 -7 47 -7 29 -1 43 3 47 14 5 13
20 28 57 58 9 7 22 7 70 3 22 -2 80 -57 82 -78 1 -10 3 -23 5 -29 2 -5 -3 -26
-11 -46 -29 -75 -130 -85 -181 -17 l-23 29 -121 0 c-67 0 -134 2 -151 5 -16 2
-83 5 -147 5 l-117 2 -51 54 c-28 30 -56 54 -62 54 -6 0 -9 2 -6 5 6 6 -131
145 -143 145 -5 0 -9 6 -9 14 0 8 -4 16 -9 18 -15 5 -90 70 -127 109 -24 25
-44 36 -64 37 -30 1 -30 1 -12 -23 9 -14 23 -25 30 -25 7 0 10 -4 7 -10 -3 -5
-3 -10 2 -10 4 0 24 -16 44 -35 20 -19 39 -31 43 -28 3 4 6 1 6 -5 0 -13 201
-215 298 -300 34 -30 64 -63 67 -73 4 -11 10 -17 15 -14 5 3 11 2 14 -3 6 -10
199 -8 215 2 6 4 11 1 11 -6 0 -8 3 -9 8 -3 8 12 72 14 72 2 0 -4 5 -5 12 -1
7 4 35 6 62 5 28 -2 71 -4 96 -5 25 0 51 -6 58 -13 15 -14 16 -39 2 -48 -12
-7 -127 -8 -391 -3 l-177 4 -161 160 c-88 89 -161 158 -161 155 0 -3 -16 12
-35 33 -19 21 -35 43 -35 48 0 5 -4 7 -8 4 -5 -3 -21 10 -37 29 -15 20 -32 32
-39 28 -6 -3 -8 -3 -4 1 8 10 -23 47 -34 40 -4 -3 -8 -1 -8 5 0 14 -47 60 -54
53 -3 -3 -6 2 -6 11 0 9 -10 19 -22 21 -29 6 -58 4 -58 -3z"/>
<path d="M1355 970 c-4 -6 -10 -8 -14 -6 -4 3 -13 -9 -20 -25 -12 -28 -11 -32
8 -50 32 -30 75 -14 79 29 2 18 -1 32 -7 32 -5 0 -16 7 -25 15 -9 10 -17 11
-21 5z"/>
<path d="M2664 933 c-4 -10 -6 -22 -5 -28 2 -5 4 -16 5 -24 2 -8 11 -18 22
-21 22 -8 66 9 58 21 -3 5 0 9 6 9 6 0 4 9 -5 23 -8 13 -12 27 -8 30 3 4 -10
7 -29 7 -25 0 -38 -6 -44 -17z"/>
<path d="M4308 640 c-22 -13 -15 -49 12 -72 32 -26 70 -6 65 33 -2 16 -7 34
-10 39 -8 13 -45 12 -67 0z"/>
<path d="M2825 583 c-23 -22 -18 -60 9 -78 23 -15 27 -15 49 0 25 16 27 44 5
71 -15 19 -47 23 -63 7z"/>
</g>
</svg>
